<svg width="32" height="28" viewBox="0 0 32 28" fill="none" xmlns="http://www.w3.org/2000/svg">
<path d="M3 28C1.375 28 0 26.625 0 25L0 10C0 4.4375 4.5 0 10 0H10.5C11.375 0 12 0.625 12 1.5V4.5C12 5.3125 11.375 6 10.5 6H10C7.8125 6 6 7.75 6 10V14H11C12.6875 14 14 15.3125 14 17V25C14 26.625 12.6875 28 11 28H3ZM21 28C19.375 28 18 26.625 18 25V10C18 4.4375 22.5 0 28 0H28.5C29.375 0 30 0.625 30 1.5V4.5C30 5.3125 29.375 6 28.5 6H28C25.8125 6 24 7.75 24 10L24 14H29C30.6875 14 32 15.3125 32 17V25C32 26.625 30.6875 28 29 28H21Z" fill="#FFB400"/>
</svg>
