<svg width="22" height="15" viewBox="0 0 22 15" fill="none" xmlns="http://www.w3.org/2000/svg">
<path d="M9.03125 6.61719C10.1211 6.05469 10.7188 5.24609 10.7188 4.01562C10.7188 1.51953 8.85547 0.921875 6.74609 0.921875H0.875V13.3672H6.88672C9.17188 13.3672 11.2812 12.2773 11.2812 9.74609C11.2812 8.19922 10.543 7.03906 9.03125 6.61719ZM3.58203 3.03125H6.18359C7.16797 3.03125 8.04688 3.3125 8.04688 4.47266C8.04688 5.52734 7.34375 5.94922 6.35938 5.94922H3.58203V3.03125ZM6.53516 11.2578H3.58203V7.8125H6.57031C7.80078 7.8125 8.53906 8.33984 8.53906 9.60547C8.53906 10.8711 7.625 11.2578 6.53516 11.2578ZM19.1211 2.78516V1.55469H14.0938V2.78516H19.1211ZM21.125 9.00781C21.125 6.33594 19.543 4.08594 16.7305 4.08594C13.9531 4.08594 12.0898 6.16016 12.0898 8.86719C12.0898 11.6797 13.8828 13.6133 16.7305 13.6133C18.875 13.6133 20.2812 12.6289 20.9492 10.5898H18.7695C18.5234 11.3633 17.5391 11.75 16.8008 11.75C15.3594 11.75 14.5859 10.9062 14.5859 9.46484H21.0898C21.0898 9.32422 21.125 9.14844 21.125 9.00781ZM14.5859 7.88281C14.6562 6.72266 15.4648 5.98438 16.625 5.98438C17.8906 5.98438 18.5234 6.6875 18.6289 7.88281H14.5859Z" fill="white"/>
</svg>
