<svg width="22" height="23" viewBox="0 0 22 23" fill="none" xmlns="http://www.w3.org/2000/svg">
<path d="M11 3.53125C15.7812 3.53125 19.7188 7.46875 19.7188 12.25C19.7188 17.0664 15.7812 20.9688 11 20.9688C6.18359 20.9688 2.28125 17.0664 2.28125 12.25C2.28125 7.46875 6.18359 3.53125 11 3.53125ZM16.7305 7.57422C16.5898 7.78516 15.3594 9.36719 12.582 10.4922C12.8633 11.0547 13.0391 11.4766 13.25 11.9688C15.7109 11.6523 18.1719 12.1445 18.418 12.2148C18.418 10.457 17.7852 8.83984 16.7305 7.57422ZM15.9219 6.69531C14.0938 5.07812 11.5977 4.48047 9.24219 5.04297C9.45312 5.32422 10.7891 7.15234 12.0195 9.40234C14.6562 8.41797 15.7812 6.90625 15.9219 6.69531ZM7.80078 5.53516C5.72656 6.51953 4.17969 8.45312 3.6875 10.7383C4.03906 10.7734 7.09766 10.7734 10.5781 9.85938C9.34766 7.64453 8.01172 5.81641 7.80078 5.53516ZM3.54688 12.2852C3.54688 14.1836 4.25 15.9414 5.44531 17.2422C6.64062 15.2031 9.10156 13.0234 11.8086 12.25C11.5977 11.8281 11.4219 11.4062 11.1758 10.9844C7.48438 12.1094 3.86328 12.0742 3.54688 12.0391C3.54688 12.1445 3.54688 12.2148 3.54688 12.2852ZM6.39453 18.1562C8.60938 19.8789 11.4922 20.1602 13.8828 19.1406C13.7773 18.4727 13.3555 16.1875 12.3008 13.4805C9.3125 14.5 7.20312 16.5742 6.39453 18.1562ZM15.1484 18.4375C16.8008 17.3125 17.9961 15.5195 18.3477 13.4453C18.0664 13.375 16.0273 12.7773 13.707 13.1289C14.6562 15.8359 15.0781 18.0156 15.1484 18.4375Z" fill="#181818"/>
</svg>
