<svg width="20" height="17" viewBox="0 0 20 17" fill="none" xmlns="http://www.w3.org/2000/svg">
<path d="M10 4.20703C7.75 4.20703 5.95703 6.03516 5.95703 8.25C5.95703 10.5 7.75 12.293 10 12.293C12.2148 12.293 14.043 10.5 14.043 8.25C14.043 6.03516 12.2148 4.20703 10 4.20703ZM10 10.8867C8.55859 10.8867 7.36328 9.72656 7.36328 8.25C7.36328 6.80859 8.52344 5.64844 10 5.64844C11.4414 5.64844 12.6016 6.80859 12.6016 8.25C12.6016 9.72656 11.4414 10.8867 10 10.8867ZM15.1328 4.06641C15.1328 3.53906 14.7109 3.11719 14.1836 3.11719C13.6562 3.11719 13.2344 3.53906 13.2344 4.06641C13.2344 4.59375 13.6562 5.01562 14.1836 5.01562C14.7109 5.01562 15.1328 4.59375 15.1328 4.06641ZM17.8047 5.01562C17.7344 3.75 17.4531 2.625 16.5391 1.71094C15.625 0.796875 14.5 0.515625 13.2344 0.445312C11.9336 0.375 8.03125 0.375 6.73047 0.445312C5.46484 0.515625 4.375 0.796875 3.42578 1.71094C2.51172 2.625 2.23047 3.75 2.16016 5.01562C2.08984 6.31641 2.08984 10.2188 2.16016 11.5195C2.23047 12.7852 2.51172 13.875 3.42578 14.8242C4.375 15.7383 5.46484 16.0195 6.73047 16.0898C8.03125 16.1602 11.9336 16.1602 13.2344 16.0898C14.5 16.0195 15.625 15.7383 16.5391 14.8242C17.4531 13.875 17.7344 12.7852 17.8047 11.5195C17.875 10.2188 17.875 6.31641 17.8047 5.01562ZM16.1172 12.8906C15.8711 13.5938 15.3086 14.1211 14.6406 14.4023C13.5859 14.8242 11.125 14.7188 10 14.7188C8.83984 14.7188 6.37891 14.8242 5.35938 14.4023C4.65625 14.1211 4.12891 13.5938 3.84766 12.8906C3.42578 11.8711 3.53125 9.41016 3.53125 8.25C3.53125 7.125 3.42578 4.66406 3.84766 3.60938C4.12891 2.94141 4.65625 2.41406 5.35938 2.13281C6.37891 1.71094 8.83984 1.81641 10 1.81641C11.125 1.81641 13.5859 1.71094 14.6406 2.13281C15.3086 2.37891 15.8359 2.94141 16.1172 3.60938C16.5391 4.66406 16.4336 7.125 16.4336 8.25C16.4336 9.41016 16.5391 11.8711 16.1172 12.8906Z" fill="white"/>
</svg>
