<svg width="22" height="23" viewBox="0 0 22 23" fill="none" xmlns="http://www.w3.org/2000/svg">
<path d="M6.64062 19H3.37109V8.48828H6.64062V19ZM4.98828 7.08203C3.96875 7.08203 3.125 6.20312 3.125 5.14844C3.125 4.12891 3.96875 3.28516 4.98828 3.28516C6.04297 3.28516 6.88672 4.12891 6.88672 5.14844C6.88672 6.20312 6.04297 7.08203 4.98828 7.08203ZM18.8398 19H15.6055V13.9023C15.6055 12.6719 15.5703 11.125 13.8828 11.125C12.1953 11.125 11.9492 12.4258 11.9492 13.7969V19H8.67969V8.48828H11.8086V9.92969H11.8438C12.3008 9.12109 13.3555 8.24219 14.9375 8.24219C18.2422 8.24219 18.875 10.4219 18.875 13.2344V19H18.8398Z" fill="white"/>
</svg>
