<svg width="30" height="53" viewBox="0 0 30 53" fill="none" xmlns="http://www.w3.org/2000/svg">
<path d="M0 6.5625C0 2.94 2.94 0 6.5625 0H23.4375C27.06 0 30 2.94 30 6.5625V45.9375C30 47.678 29.3086 49.3472 28.0779 50.5779C26.8472 51.8086 25.178 52.5 23.4375 52.5H6.5625C4.82202 52.5 3.15282 51.8086 1.92211 50.5779C0.691405 49.3472 0 47.678 0 45.9375V6.5625ZM11.25 41.25C10.7527 41.25 10.2758 41.4475 9.92418 41.7992C9.57254 42.1508 9.375 42.6277 9.375 43.125C9.375 43.6223 9.57254 44.0992 9.92418 44.4508C10.2758 44.8025 10.7527 45 11.25 45H18.75C19.2473 45 19.7242 44.8025 20.0758 44.4508C20.4275 44.0992 20.625 43.6223 20.625 43.125C20.625 42.6277 20.4275 42.1508 20.0758 41.7992C19.7242 41.4475 19.2473 41.25 18.75 41.25H11.25Z" fill="white"/>
</svg>
